# xmcd CD database file
#
# Track frame offsets:
#	182
#	20822
#	39535
#	59750
#	81795
#	100552
#	122112
#	142062
#
# Disc length: 2138 seconds
#
# Revision: 0
# Processed by: cddbd v1.5.2PL0 Copyright (c) Steve Scherf et al.
# Submitted via: CDex 1.70beta2
#
DISCID=6f085808
DTITLE=Raphy Leavitt and La Selecta - Provócame
DYEAR=1900
DGENRE=Salsa
TTITLE0=Provócame
TTITLE1=Pidiendo Mas Amor
TTITLE2=Nosotros Dos
TTITLE3=Hazme El Amor Y Calla
TTITLE4=Fuego Y Ezscarcha
TTITLE5=Necesitas Un Hombre
TTITLE6=Un Propio Estilo
TTITLE7=Tu Y Yo
EXTD=
EXTT0=
EXTT1=
EXTT2=
EXTT3=
EXTT4=
EXTT5=
EXTT6=
EXTT7=
PLAYORDER=
